<?xml version="1.0" standalone="no"?>
<!DOCTYPE svg PUBLIC "-//W3C//DTD SVG 20010904//EN"
 "http://www.w3.org/TR/2001/REC-SVG-20010904/DTD/svg10.dtd">
<svg version="1.0" xmlns="http://www.w3.org/2000/svg"
 width="612.000000pt" height="612.000000pt" viewBox="0 0 612.000000 612.000000"
 preserveAspectRatio="xMidYMid meet">
<metadata>
Created by potrace 1.14, written by Peter Selinger 2001-2017
</metadata>
<g transform="translate(0.000000,612.000000) scale(0.100000,-0.100000)"
fill="#000000" stroke="none">
<path d="M2940 4883 c-30 -7 -64 -15 -74 -18 -10 -2 -76 -32 -145 -66 -69 -34
-129 -62 -133 -61 -5 1 -8 -2 -8 -7 0 -5 -15 -14 -32 -22 -18 -7 -35 -16 -38
-19 -3 -3 -18 -13 -35 -21 -16 -8 -48 -26 -70 -39 -22 -14 -42 -25 -45 -25 -3
0 -19 -10 -37 -23 -17 -12 -34 -22 -37 -22 -4 0 -16 -9 -28 -20 -11 -10 -34
-22 -49 -25 -16 -4 -29 -11 -29 -16 0 -5 -5 -9 -12 -9 -6 0 -19 -6 -27 -14 -9
-7 -52 -32 -96 -56 -44 -23 -99 -55 -121 -71 -23 -15 -43 -26 -46 -24 -2 2
-17 -7 -33 -22 -17 -14 -44 -31 -61 -39 -17 -7 -37 -20 -44 -30 -8 -9 -22 -19
-31 -23 -16 -6 -105 -77 -120 -96 -5 -5 -24 -28 -43 -49 -19 -22 -39 -49 -44
-60 -5 -12 -18 -41 -30 -66 -11 -25 -23 -61 -26 -80 -3 -19 -11 -69 -17 -110
-19 -113 -19 -1116 0 -1275 7 -66 17 -122 22 -125 5 -3 10 -15 12 -25 5 -29
27 -74 59 -121 15 -23 25 -44 23 -48 -3 -3 -3 -4 0 -3 3 2 30 -20 59 -50 30
-29 57 -53 61 -53 3 0 11 -4 18 -10 53 -43 77 -60 113 -78 22 -11 46 -28 53
-36 8 -9 20 -16 27 -16 8 0 14 -5 14 -10 0 -6 3 -9 8 -8 6 2 32 -12 107 -59
11 -7 36 -20 55 -30 19 -9 37 -19 40 -23 10 -11 106 -66 138 -79 17 -7 32 -17
32 -22 0 -5 6 -9 13 -9 7 0 23 -9 35 -20 12 -12 22 -18 22 -16 0 3 21 -8 48
-24 26 -17 59 -35 75 -41 15 -6 27 -15 27 -21 0 -5 4 -7 9 -3 5 3 15 -1 23 -8
7 -7 33 -23 58 -35 25 -13 83 -43 130 -67 47 -24 92 -44 101 -45 8 0 19 -4 25
-9 5 -5 36 -17 69 -26 147 -43 285 -19 486 84 176 91 204 106 214 119 6 7 17
14 25 16 8 1 34 14 57 29 24 15 47 27 53 27 5 0 10 3 10 8 0 4 30 23 68 41 37
19 81 44 97 56 17 12 49 30 72 41 24 10 43 22 43 27 0 4 6 7 13 7 6 0 32 14
57 31 25 16 65 41 90 55 50 27 83 47 90 54 17 17 156 105 162 102 4 -1 8 4 8
10 1 7 19 27 40 43 21 17 39 34 40 38 0 8 12 24 43 58 9 10 14 19 11 19 -4 0
1 11 10 25 24 36 53 123 61 180 11 72 12 103 16 268 3 122 1 150 -11 158 -17
10 -690 11 -707 1 -6 -4 -14 -36 -18 -71 -10 -91 -19 -116 -61 -177 -39 -56
-97 -108 -108 -97 -3 4 -6 1 -6 -6 0 -7 -4 -9 -10 -6 -5 3 -10 2 -10 -2 0 -11
-111 -79 -123 -75 -5 1 -6 -2 -3 -7 4 -5 -10 -15 -29 -21 -19 -6 -35 -16 -35
-21 0 -5 -4 -9 -9 -9 -5 0 -67 -33 -138 -73 -120 -68 -222 -121 -268 -138 -11
-4 -51 -7 -90 -7 -58 0 -85 7 -152 36 -46 19 -83 39 -83 44 0 4 -7 8 -16 8 -9
0 -28 8 -42 18 -15 10 -44 27 -64 37 -21 11 -38 24 -38 29 0 5 -3 6 -6 3 -4
-4 -20 3 -35 14 -16 11 -29 18 -29 14 0 -3 -15 5 -32 18 -18 13 -53 35 -78 48
-25 13 -47 27 -50 30 -3 3 -26 18 -52 32 -26 14 -56 34 -67 44 -10 10 -35 33
-55 51 -20 18 -36 39 -36 47 0 8 -4 15 -8 15 -5 0 -17 24 -27 53 -16 45 -19
94 -23 382 -2 189 1 362 6 403 12 82 49 168 87 197 14 11 38 32 54 48 16 15
34 27 38 27 5 0 27 13 49 30 21 16 44 30 50 30 6 0 23 9 38 21 14 11 26 17 26
12 0 -4 4 -3 8 3 9 13 129 84 143 84 5 0 9 5 9 10 0 6 6 10 14 10 7 0 25 9 38
20 14 10 28 16 32 13 3 -3 6 -2 6 4 0 6 17 18 38 27 20 9 44 20 52 25 34 21
112 51 138 54 15 2 33 7 40 11 6 4 26 4 44 1 18 -3 40 -7 48 -8 32 -5 120 -41
120 -50 0 -4 4 -6 9 -2 5 3 13 1 16 -5 4 -6 24 -18 46 -27 21 -8 39 -19 39
-25 0 -5 4 -7 9 -3 5 3 12 1 16 -5 3 -6 21 -17 38 -26 54 -26 99 -52 141 -82
23 -17 43 -30 46 -30 14 0 80 -37 80 -44 0 -5 5 -6 10 -3 6 3 10 2 10 -3 0 -5
21 -21 48 -35 81 -45 175 -148 180 -197 8 -69 22 -163 26 -167 3 -4 547 -6
718 -3 16 0 17 12 13 143 -13 351 -44 454 -187 605 -22 23 -42 42 -44 42 -5 0
-79 53 -109 78 -5 4 -18 11 -27 15 -10 3 -18 11 -18 17 0 6 -4 9 -9 5 -5 -3
-16 2 -24 10 -9 8 -18 15 -21 15 -11 0 -141 83 -148 94 -4 6 -8 8 -8 4 0 -4
-24 7 -52 25 -73 44 -108 64 -140 77 -16 7 -28 16 -28 22 0 5 -4 7 -8 4 -5 -3
-18 3 -28 12 -10 10 -34 24 -51 31 -18 7 -33 16 -33 20 0 4 -12 12 -27 19 -27
11 -93 47 -203 111 -240 139 -426 189 -570 154z"/>
<path d="M2510 2976 c-3 -2 -17 -6 -30 -8 -25 -4 -113 -58 -95 -58 6 0 3 -4
-5 -10 -12 -7 -12 -19 -3 -76 7 -37 17 -70 23 -74 7 -4 11 -10 11 -14 -3 -17
0 -29 4 -24 3 3 21 -9 39 -26 18 -17 40 -36 47 -41 30 -23 190 -115 198 -115
5 0 11 -3 13 -7 4 -11 101 -59 111 -55 5 1 6 -2 3 -7 -6 -9 91 -60 156 -80 39
-13 125 -8 155 8 10 5 47 24 83 41 36 18 72 37 80 44 8 6 25 17 38 24 12 6 32
18 45 25 12 6 24 14 27 17 3 3 35 21 72 40 37 19 68 38 68 43 0 4 5 7 11 7 6
0 17 6 24 13 8 6 30 23 49 37 20 14 36 30 36 37 0 7 6 16 14 20 15 8 48 141
37 147 -3 2 -24 -2 -46 -10 -22 -8 -51 -16 -65 -19 -99 -17 -149 -21 -227 -20
-108 3 -185 11 -273 30 -14 3 -35 7 -48 10 -13 2 -32 7 -42 10 -10 3 -27 8
-37 10 -18 3 -95 22 -123 30 -117 31 -338 64 -350 51z"/>
</g>
</svg>
